<?xml version="1.0" encoding="utf-8"?>
<!-- Generator: Adobe Illustrator 20.1.0, SVG Export Plug-In . SVG Version: 6.00 Build 0)  -->
<svg version="1.1" xmlns="http://www.w3.org/2000/svg" xmlns:xlink="http://www.w3.org/1999/xlink" x="0px" y="0px"
	 viewBox="0 0 1024 1024" style="enable-background:new 0 0 1024 1024;" xml:space="preserve">
<style type="text/css">
	.st0{fill:#F6BB18;}
	.st1{fill:#25A667;}
	.st2{display:none;fill:#7E6002;}
	.st3{fill:#FEFEFD;}
	.st4{fill:#FEFEFE;}
	.st5{fill:#57BB8A;}
</style>
<g id="Layer_1">
	<rect x="0" y="0" class="st0" width="1024" height="1024"/>
	<rect x="92" y="92" class="st1" width="840" height="840"/>
</g>
<g id="Layer_2">
	<path class="st2" d="M813.4,932.8c11.2,14.6,22.3,29.2,33.4,43.8c1.3,1.7,3.3,3.1,3.1,5.7c-1.9,1-4,0.6-6,0.6
		c-69.7,0-139.5,0-209.2,0c-2,0-4.1,0.4-6-0.6c-2.8-6.4-7.9-11.1-12-16.6c-8.5-11.3-17.1-22.3-25.7-33.5c0,0-0.2,0-0.2,0
		c47.9,0,95.9-0.1,143.8-0.1c25.9,0,51.8-0.2,77.7-0.3C812.7,932.1,813,932.5,813.4,932.8z"/>
	<path class="st3" d="M590.9,932.2c0-14.2,0.2-28.3,0-42.5c-0.1-4.4,1.3-5.3,5.5-5.3c70.3,0.1,140.5,0.1,210.8,0
		c4.4,0,5.4,1.4,5.3,5.5c-0.2,14-0.1,27.9-0.1,41.9c-25.9,0.1-51.8,0.2-77.7,0.3C686.8,932.2,638.8,932.2,590.9,932.2z"/>
	<path class="st4" d="M314.9,584.4c24.5-16,51.9-24.3,80.1-30.2c55.4-11.6,111.3-13,167.5-7.9c34.8,3.2,68.9,9.5,101.7,22.1
		c11,4.2,21.3,9.7,31.3,15.9c1.4,1.1,2.8,2.3,4.2,3.4c11.8,9.2,18.7,20.4,18.2,36.3c-0.8,22.5-0.2,45-0.2,67.4
		c-1.4,0.1-2.8,0.2-4.2,0.2c-138.9,0-277.7,0-416.6,0c-1.4,0-2.8-0.1-4.2-0.2c0-23.7,0.1-47.4-0.1-71c-0.1-10.6,4-19.3,11.4-26.5
		C307.4,590.5,311.2,587.5,314.9,584.4z"/>
	<path class="st3" d="M419.5,396.5c0-52.7,42.8-95.5,95.4-95.4c52.2,0.1,95,42.9,95.3,95.3c0.3,52.4-42.8,95.5-95.4,95.6
		C462,492,419.5,449.4,419.5,396.5z"/>
	<path class="st5" d="M369.6,454.5c-0.2,39.2-31.4,70.4-70.3,70.2c-38.4-0.1-69.6-31.8-69.6-70.4c0.1-39.2,31.9-69.7,72.3-69.5
		C338.8,385.1,369.8,417,369.6,454.5z"/>
	<path class="st5" d="M731.1,384.9c37.4,0,69.1,31.6,69,68.9c0,39.6-31.2,71-70.2,71c-38.4,0-69.8-31.6-69.7-70.2
		C660.4,415.7,691.7,384.9,731.1,384.9z"/>
	<path class="st5" d="M717.8,691.4c0-22.5-0.5-45,0.2-67.4c0.5-15.9-6.4-27.1-18.2-36.3c-1.4-1.1-2.8-2.3-4.2-3.4
		c4.5-2,9.2-1,13.8-1c27.6,0.3,54.9,2.6,81.7,9.7c16.6,4.4,32.4,10.3,46.1,20.9c9.3,7.3,14.6,16.3,14.2,28.6
		c-0.5,14.4-0.3,28.8,0,43.1c0.1,4.5-1.5,5.9-6,5.9C802.8,691.4,760.3,691.4,717.8,691.4z"/>
	<path class="st5" d="M314.9,584.4c-3.7,3.2-7.5,6.1-11,9.5c-7.4,7.2-11.4,15.9-11.4,26.5c0.2,23.7,0.1,47.4,0.1,71
		c-36.7,0-73.4,0-110,0.2c-4.7,0-6.5-1.3-6.4-6.2c0.6-16.6-0.9-33.2,0.8-49.8c0.9-8.8,5.7-15.3,12.4-20.8
		c13.5-11.1,29.4-16.9,45.9-21.5c23.9-6.7,48.4-9.2,73.2-10.1C310.7,583.2,313,582.7,314.9,584.4z"/>
</g>
</svg>
