<svg id="Layer_2" data-name="Layer 2" xmlns="http://www.w3.org/2000/svg" viewBox="0 0 1024 1024"><title>google</title><rect width="1024" height="1024" style="fill:#dc4f42"/><path d="M231.54,511.56c-3.49-92,77.13-177,169.25-178.15,47-4,92.64,14.23,128.17,44-14.57,16-29.4,31.86-45.25,46.69-31.28-19-68.94-33.48-105.5-20.62-59,16.78-94.68,86.39-72.86,144.07,18.07,60.23,91.36,93.29,148.8,68,29.74-10.65,49.34-38.08,58-67.56-34.09-.68-68.18-0.26-102.27-1.19-0.09-20.28-.17-40.47-0.09-60.75,56.84-.09,113.77-0.26,170.7.26,3.49,49.67-3.83,102.83-36.13,142.7-44.23,56.91-126,73.61-192.43,51.29C281.31,657.07,230,586,231.54,511.56Z" transform="translate(0 0)" style="fill:#fff"/><path d="M691.22,434.88h50.71c0.09,17,.26,34,0.34,50.95,17,0.17,34,.26,51,0.34v50.78l-51,.26c-0.17,17-.26,34-0.34,51-17-.09-33.92,0-50.79,0-0.17-17-.17-34-0.34-50.95-17-.17-34-0.26-51-0.34V486.17q25.44-.13,51-0.34C690.88,468.87,691,451.83,691.22,434.88Z" transform="translate(0 0)" style="fill:#fff"/></svg>