<svg id="Layer_1" data-name="Layer 1" xmlns="http://www.w3.org/2000/svg" viewBox="0 0 1024.86 1024.85"><title>linkedin</title><rect width="1024.86" height="1024.85" style="fill:#017bb6"/><path d="M175,395.64h144.6V860.17H175V395.64Zm72.35-230.93a83.71,83.71,0,1,1-83.81,83.69,83.75,83.75,0,0,1,83.81-83.69" transform="translate(0.35)" style="fill:#fff"/><path d="M410.26,395.64H548.74v63.49h2c19.26-36.55,66.42-75,136.7-75,146.17,0,173.21,96.17,173.21,221.28v254.8H716.28V634.32c0-53.92-1.06-123.22-75.09-123.22-75.19,0-86.64,58.68-86.64,119.24V860.17H410.26V395.64Z" transform="translate(0.35)" style="fill:#fff"/></svg>