<svg id="linkedin" xmlns="http://www.w3.org/2000/svg" viewBox="0 0 1024 1024"><title>linkedin</title><rect width="1024" height="1024" style="fill:#017bb6"/><path d="M175.22,395.31H319.69V859.46H175.22V395.31ZM247.5,164.57a83.65,83.65,0,1,1-83.74,83.63,83.68,83.68,0,0,1,83.74-83.63" transform="translate(0 0)" style="fill:#fff"/><path d="M410.27,395.31H548.63v63.44h2c19.24-36.52,66.36-75,136.58-75,146,0,173.07,96.09,173.07,221.09V859.46H716V633.79c0-53.87-1.06-123.12-75-123.12-75.13,0-86.57,58.63-86.57,119.14V859.46H410.27V395.31Z" transform="translate(0 0)" style="fill:#fff"/></svg>