<svg id="Layer_1" data-name="Layer 1" xmlns="http://www.w3.org/2000/svg" viewBox="0 0 1024.98 1024.99"><title>pinterest</title><rect width="1024.98" height="1024.99" style="fill:#ca2128"/><path d="M511.51,142c-204.72,0-370.73,166-370.73,370.74,0,151.8,91.27,282.22,221.93,339.55-1-25.93-.19-57,6.43-85.12,7.15-30.14,47.72-202.06,47.72-202.06S405,541.51,405,506.52c0-54.9,31.89-95.94,71.54-95.94,33.7,0,50,25.3,50,55.63,0,33.89-21.63,84.6-32.73,131.55-9.3,39.33,19.73,71.39,58.45,71.39,70.26,0,117.56-90.17,117.56-197.09,0-81.22-54.71-142-154.24-142-112.44,0-182.51,83.84-182.51,177.5,0,32.32,9.54,55.1,24.45,72.73,6.87,8.11,7.82,11.34,5.29,20.64-1.71,6.87-5.81,23.25-7.53,29.75-2.48,9.44-10.06,12.77-18.54,9.3-51.81-21.12-75.93-77.85-75.93-141.61,0-105.29,88.79-231.6,265-231.6,141.51,0,234.71,102.43,234.71,212.39,0,145.43-80.9,254.06-200.07,254.06-40,0-77.69-21.65-90.55-46.19,0,0-21.55,85.41-26.07,101.91-7.87,28.54-23.26,57.15-37.33,79.41A371.11,371.11,0,0,0,511.51,883.5c204.72,0,370.7-166,370.7-370.73S716.24,142,511.51,142Z" transform="translate(0.98 -0.28)" style="fill:#fff"/></svg>