<svg id="twitter" xmlns="http://www.w3.org/2000/svg" viewBox="0 0 1024 1024"><title>twitter</title><rect width="1024" height="1024" style="fill:#2aa8e0"/><path d="M853.31,300.28a279.66,279.66,0,0,1-80.44,22.05,140.33,140.33,0,0,0,61.58-77.48,280,280,0,0,1-88.91,34,140.21,140.21,0,0,0-238.7,127.72C390.47,400.76,287.28,345,218.18,260.24a140.27,140.27,0,0,0,43.33,187,139.47,139.47,0,0,1-63.42-17.52v1.76A140.17,140.17,0,0,0,310.43,568.81a141,141,0,0,1-36.9,4.94,139.08,139.08,0,0,1-26.34-2.55A140.23,140.23,0,0,0,378,668.49a280.94,280.94,0,0,1-173.95,60,289,289,0,0,1-33.38-2,396.7,396.7,0,0,0,214.72,62.9C643,789.37,783.85,576,783.85,390.91c0-6.05-.16-12.09-0.38-18.15A285.25,285.25,0,0,0,853.31,300.28Z" style="fill:#fff"/></svg>