<svg id="Layer_1" data-name="Layer 1" xmlns="http://www.w3.org/2000/svg" viewBox="0 0 1024.84 1024.85"><title>twitter</title><rect width="1024.84" height="1024.85" style="fill:#2aa8e0"/><path d="M853.1,300.53A279.88,279.88,0,0,1,772.6,322.6a140.45,140.45,0,0,0,61.63-77.54,280.21,280.21,0,0,1-89,34A140.32,140.32,0,0,0,506.36,406.91c-116.48-5.82-219.75-61.62-288.91-146.46a140.39,140.39,0,0,0,43.37,187.15,139.59,139.59,0,0,1-63.47-17.54v1.77A140.28,140.28,0,0,0,309.77,569.28a141.12,141.12,0,0,1-36.93,4.94,139.2,139.2,0,0,1-26.36-2.55A140.34,140.34,0,0,0,377.39,669,281.17,281.17,0,0,1,203.3,729a289.28,289.28,0,0,1-33.41-2A397,397,0,0,0,384.79,790c257.8,0,398.79-213.55,398.79-398.79,0-6.06-.16-12.1-0.38-18.16A285.48,285.48,0,0,0,853.1,300.53Z" transform="translate(0.91)" style="fill:#fff"/></svg>