<svg id="Layer_1" data-name="Layer 1" xmlns="http://www.w3.org/2000/svg" viewBox="0 0 1024.33 1024.34"><title>youtube</title><rect width="1024.33" height="1024.34" style="fill:#cd332d"/><path d="M440.71,100.08H394.06l-31.47,121-32.74-121H281.28c9.72,28.54,19.86,57.26,29.58,85.84,14.79,43,24,75.35,28.2,97.48V408.18h46.15V283.4ZM564,333.84V253.41c0-24.53-4.21-42.46-12.93-54.08q-17.29-23.51-48.54-23.54c-20.72,0-36.95,7.86-48.45,23.54-8.86,11.63-13,29.55-13,54.08v80.43c0,24.41,4.17,42.49,13,54,11.5,15.65,27.73,23.51,48.45,23.51s37-7.86,48.54-23.51C559.82,376.33,564,358.26,564,333.84Zm-41.63,7.84c0,21.24-6.42,31.87-19.84,31.87s-19.87-10.63-19.87-31.87v-96.6c0-21.25,6.44-31.82,19.87-31.82s19.84,10.57,19.84,31.82v96.6Zm195.5,66.5V178.59H676.29V354.07c-9.25,13-18,19.48-26.29,19.48-5.6,0-8.84-3.29-9.74-9.75-0.52-1.35-.52-6.43-0.52-16.19v-169H598.26V360.14c0,16.19,1.41,27.2,3.7,34.13,4.13,11.64,13.38,17.1,26.79,17.1,15.17,0,31-9.24,47.54-28.24v25.05H717.9Z" transform="translate(0.13)" style="fill:#fff"/><path d="M852.67,686.85c0,53.11,0,109.46-11.95,161-8.32,36.21-37.94,62.92-73.62,66.93-84.48,9.42-170,9.48-255.1,9.42s-170.63,0-255.1-9.42c-35.69-4-65.31-30.72-73.62-66.93-11.86-51.58-11.86-107.94-11.86-161s0.12-109.42,12-161.06c8.32-36.2,37.94-62.93,73.62-66.91,84.48-9.46,170-9.48,255.1-9.46s170.62,0,255.1,9.46c35.69,4,65.31,30.71,73.62,66.91C852.72,577.44,852.67,633.69,852.67,686.85Z" transform="translate(0.13)" style="fill:#fff"/><path d="M365.73,572.24v-43H222.16v43h48.44v262h45.78v-262h49.35Zm83.17,262V809.47c-16.34,18.76-31.89,27.91-47,27.91-13.27,0-22.42-5.38-26.51-16.91-2.27-6.91-3.64-17.72-3.64-33.78V607h41.16V774.31c0,9.62,0,14.67.38,16,1,6.38,4.12,9.62,9.63,9.62,8.26,0,16.93-6.38,26-19.25V607h41.22V834.23H448.91Zm156.45-64.92c0,20.52-6,30.62-17.91,30.62-6.76,0-13.65-3.24-20.53-10.1V651.32c6.88-6.76,13.77-10,20.53-10,11.87,0,17.91,10.53,17.91,31v97Zm41.16-3.24V675.57c0-21.48-1.41-36.54-4.15-45.68-5.5-17-16.5-25.63-32.91-25.63-15.12,0-29.22,8.3-42.54,24.63V529.29H525.76V834.23h41.16v-22c13.77,17,27.89,25.15,42.54,25.15,16.41,0,27.42-8.63,32.91-25.54C645.11,802.22,646.51,787.08,646.51,766.07Zm114.22-72.22H719.59v-21q0-31.51,20.65-31.54c13.6,0,20.49,10.53,20.49,31.54v21Zm41.19,67.68v-6h-42c0,16.53-.5,25.62-0.88,27.86-2.37,11-8.3,16.53-18.42,16.53-14.12,0-21-10.48-21-31.53V728.15h82.34V681.09c0-24.3-4.15-42.06-12.77-53.55-11.53-15.58-27.91-23.3-48.56-23.3-21,0-37.44,7.72-49.3,23.3-8.77,11.48-12.72,29.24-12.72,53.55v79.59c0,24.1,4.48,42.06,13.22,53.4,11.88,15.53,28.27,23.3,49.85,23.3s38.37-8.15,49.78-24.64A59.16,59.16,0,0,0,801,788.08C801.4,783.93,801.92,774.78,801.92,761.54Z" transform="translate(0.13)" style="fill:#cd332d"/></svg>