<svg xmlns="http://www.w3.org/2000/svg" width="1024" height="1024" shape-rendering="geometricPrecision" text-rendering="geometricPrecision" image-rendering="optimizeQuality" clip-rule="evenodd" viewBox="0 0 10240 10240"><title>astrologer icon</title><desc>astrologer icon from the IconExperience.com O-Collection. Copyright by INCORS GmbH (www.incors.com).</desc><path fill="#4D82B8" d="M8000 8879c0 746-1728 1041-2880 1041s-2880-295-2880-1040c0-1165 501-2192 1264-2800 227 185 486 332 766 431 143 849 426 1809 850 1809s707-960 850-1809c280-99 539-246 766-431 762 608 1264 1635 1264 2799z"/><path fill="#EFC1B4" d="M7369 4160c-12 904-563 1678-1349 2017 40-301 60-565 60-737 0-176-144-320-320-320H4480c-176 0-320 144-320 320 0 170 19 431 58 728-773-345-1314-1113-1326-2008h4477zM4480 5440h1280v320H4480v-320z"/><path fill="#4D82B8" d="M4996 0h248c123 0 228 64 284 172 476 916 1214 2094 1592 2911l-60 184-582-1 472 341-76 233H2880c0-492 757-1741 1398-2874l112 81-181 553 470-343 470 343-181-553 472-341-582 1-162-503 16-32C4769 64 4873 0 4996 0zm-957 2240l-179 554-582-1 472 341-181 553 470-343 470 343-181-553 472-341-582 1-179-554zm1740-731l-179 554-582-1 471 341-181 554 471-343 470 343-181-554 471-341-582 1-178-554zM4423 707c65-117 128-232 188-344l-111 344h-77z"/></svg>