<svg xmlns="http://www.w3.org/2000/svg" width="1024" height="1024" shape-rendering="geometricPrecision" text-rendering="geometricPrecision" image-rendering="optimizeQuality" clip-rule="evenodd" viewBox="0 0 10240 10240"><title>dot_matrix icon</title><desc>dot_matrix icon from the IconExperience.com O-Collection. Copyright by INCORS GmbH (www.incors.com).</desc><path fill="gray" d="M1920 1280h6400c353 0 640 287 640 640v6400c0 353-287 640-640 640H1920c-353 0-640-287-640-640V1920c0-353 287-640 640-640zm0 320c-176 0-320 144-320 320v640c0 176 144 320 320 320h640c176 0 320-144 320-320v-640c0-176-144-320-320-320h-640zm5760 3840c-176 0-320 144-320 320v640c0 176 144 320 320 320h640c176 0 320-144 320-320v-640c0-176-144-320-320-320h-640zm0 1920c-176 0-320 144-320 320v640c0 176 144 320 320 320h640c176 0 320-144 320-320v-640c0-176-144-320-320-320h-640zM3840 5440c-176 0-320 144-320 320v640c0 176 144 320 320 320h640c176 0 320-144 320-320v-640c0-176-144-320-320-320h-640zm3840-3840c-176 0-320 144-320 320v640c0 176 144 320 320 320h640c176 0 320-144 320-320v-640c0-176-144-320-320-320h-640zM5760 7360c-176 0-320 144-320 320v640c0 176 144 320 320 320h640c176 0 320-144 320-320v-640c0-176-144-320-320-320h-640zm0-3840c-176 0-320 144-320 320v640c0 176 144 320 320 320h640c176 0 320-144 320-320v-640c0-176-144-320-320-320h-640zM1920 5440c-176 0-320 144-320 320v640c0 176 144 320 320 320h640c176 0 320-144 320-320v-640c0-176-144-320-320-320h-640zm1920-1920c-176 0-320 144-320 320v640c0 176 144 320 320 320h640c176 0 320-144 320-320v-640c0-176-144-320-320-320h-640zm0-1920c-176 0-320 144-320 320v640c0 176 144 320 320 320h640c176 0 320-144 320-320v-640c0-176-144-320-320-320h-640z"/></svg>