<svg xmlns="http://www.w3.org/2000/svg" width="1024" height="1024" shape-rendering="geometricPrecision" text-rendering="geometricPrecision" image-rendering="optimizeQuality" clip-rule="evenodd" viewBox="0 0 10240 10240"><title>formula icon</title><desc>formula icon from the IconExperience.com O-Collection. Copyright by INCORS GmbH (www.incors.com).</desc><path fill="#4D82B8" d="M9600 4160H8320l-640 880-640-880H5760l1280 1760-1280 1760h1280l640-880 640 880h1280L8320 5920z"/><path fill="gray" d="M640 6400V5120h1280c272 0 504 170 597 409l533 1066 1458-4858c82-277 337-456 612-456l4480-1v1280H5595L3812 8503l-1-1c-49 163-162 306-326 388-315 157-698 30-855-285L1527 6400H640z"/></svg>