<svg xmlns="http://www.w3.org/2000/svg" width="1024" height="1024" shape-rendering="geometricPrecision" text-rendering="geometricPrecision" image-rendering="optimizeQuality" clip-rule="evenodd" viewBox="0 0 10240 10240"><title>graph_connection icon</title><desc>graph_connection icon from the IconExperience.com O-Collection. Copyright by INCORS GmbH (www.incors.com).</desc><path fill="gray" d="M3165 4467h3910c-23 107-35 219-35 333 0 105 10 208 30 307H3170c20-99 30-202 30-307 0-114-12-226-35-333z"/><path fill="#4D82B8" d="M8640 3520c707 0 1280 573 1280 1280s-573 1280-1280 1280-1280-573-1280-1280 573-1280 1280-1280zm0 640c-353 0-640 287-640 640s287 640 640 640 640-287 640-640-287-640-640-640zM1600 3520c707 0 1280 573 1280 1280s-573 1280-1280 1280S320 5507 320 4800s573-1280 1280-1280zm0 640c-353 0-640 287-640 640s287 640 640 640 640-287 640-640-287-640-640-640z"/></svg>