<?xml version="1.0" encoding="UTF-8"?>
<!DOCTYPE svg PUBLIC "-//W3C//DTD SVG 1.1//EN" "http://www.w3.org/Graphics/SVG/1.1/DTD/svg11.dtd">
<svg xmlns="http://www.w3.org/2000/svg" xml:space="preserve" width="1024px" height="1024px" shape-rendering="geometricPrecision" text-rendering="geometricPrecision" image-rendering="optimizeQuality" fill-rule="evenodd" clip-rule="evenodd" viewBox="0 0 10240 10240" xmlns:xlink="http://www.w3.org/1999/xlink">
	<title>sort_up_down icon</title>
	<desc>sort_up_down icon from the IconExperience.com O-Collection. Copyright by INCORS GmbH (www.incors.com).</desc>
	<path id="curve0" fill="#808080" d="M7173 2747l-1826 -1826c-125,-125 -328,-124 -453,0l-1826 1826c-124,124 -187,276 -187,453l0 1159c0,66 38,123 99,148 61,25 128,12 174,-35l1327 -1327 0 3950 -1327 -1327c-47,-47 -113,-60 -174,-35 -61,25 -99,82 -99,148l0 1159c0,176 63,328 187,453l1826 1826c124,124 328,124 453,0l1826 -1826c125,-125 187,-276 187,-453l0 -1159c0,-66 -38,-123 -99,-148 -61,-25 -128,-12 -174,35l-1327 1327 0 -3950 1327 1327c47,47 113,60 174,35 61,-25 99,-82 99,-148l0 -1159c0,-176 -63,-328 -187,-453z"/>
</svg>