<svg xmlns="http://www.w3.org/2000/svg" width="1024" height="1024" shape-rendering="geometricPrecision" text-rendering="geometricPrecision" image-rendering="optimizeQuality" clip-rule="evenodd" viewBox="0 0 10240 10240"><title>table icon</title><desc>table icon from the IconExperience.com O-Collection. Copyright by INCORS GmbH (www.incors.com).</desc><path fill="gray" d="M9280 9280H960V1920c0-353 287-640 640-640h7040c353 0 640 287 640 640v7360zM1280 2880v1280h1280V2880H1280zm1600 0v1280h1280V2880H2880zm1600 0v1280h1280V2880H4480zm1600 0v1280h1280V2880H6080zm1600 0v1280h1280V2880H7680zM1280 4480v1280h1280V4480H1280zm1600 0v1280h1280V4480H2880zm1600 0v1280h1280V4480H4480zm1600 0v1280h1280V4480H6080zm1600 0v1280h1280V4480H7680zM1280 6080v1280h1280V6080H1280zm1600 0v1280h1280V6080H2880zm1600 0v1280h1280V6080H4480zm1600 0v1280h1280V6080H6080zm1600 0v1280h1280V6080H7680zM1280 7680v1280h1280V7680H1280zm1600 0v1280h1280V7680H2880zm1600 0v1280h1280V7680H4480zm1600 0v1280h1280V7680H6080zm1600 0v1280h1280V7680H7680z"/></svg>