<?xml version="1.0" encoding="UTF-8"?>
<!DOCTYPE svg PUBLIC "-//W3C//DTD SVG 1.1//EN" "http://www.w3.org/Graphics/SVG/1.1/DTD/svg11.dtd">
<svg xmlns="http://www.w3.org/2000/svg" xml:space="preserve" width="1024px" height="1024px" shape-rendering="geometricPrecision" text-rendering="geometricPrecision" image-rendering="optimizeQuality" fill-rule="evenodd" clip-rule="evenodd" viewBox="0 0 10240 10240" xmlns:xlink="http://www.w3.org/1999/xlink">
	<title>arrow_cross icon</title>
	<desc>arrow_cross icon from the IconExperience.com O-Collection. Copyright by INCORS GmbH (www.incors.com).</desc>
	<path id="curve0" fill="#4D82B8" d="M8398 6533l1186 -1186c125,-125 124,-328 0,-453l-1186 -1186c-124,-124 -277,-186 -453,-187l-839 -7c-66,-1 -123,38 -148,99 -25,61 -12,128 35,174l687 694 -1920 0 0 -1920 687 687c47,47 113,60 174,35 61,-25 98,-82 99,-148l7 -839c1,-176 -63,-328 -187,-453l-1186 -1186c-125,-125 -328,-124 -453,0l-1186 1186c-124,124 -186,277 -187,453l-7 839c-1,66 38,123 99,148 61,25 128,12 174,-35l687 -687 0 1920 -1920 0 687 -687c47,-47 60,-113 35,-174 -25,-61 -82,-98 -148,-99l-839 -7c-176,-1 -328,63 -453,187l-1186 1186c-125,125 -124,328 0,453l1186 1186c124,124 277,186 453,187l839 7c66,1 123,-38 148,-99 25,-61 12,-128 -35,-174l-687 -687 1920 0 0 1920 -687 -687c-47,-47 -113,-60 -174,-35 -61,25 -98,82 -99,148l-7 839c-1,176 63,328 187,453l1186 1186c125,125 328,124 453,0l1186 -1186c124,-124 186,-277 187,-453l7 -839c1,-66 -38,-123 -99,-148 -61,-25 -128,-12 -174,35l-687 687 0 -1920 1920 0 -687 680c-47,47 -60,113 -35,174 25,61 82,98 148,99l839 7c176,1 328,-63 453,-187z"/>
</svg>