<?xml version="1.0" encoding="utf-8"?>
<!-- Generator: Adobe Illustrator 21.0.2, SVG Export Plug-In . SVG Version: 6.00 Build 0)  -->
<svg version="1.1"
	 id="Layer_1" shape-rendering="geometricPrecision" image-rendering="optimizeQuality" text-rendering="geometricPrecision"
	 xmlns="http://www.w3.org/2000/svg" xmlns:xlink="http://www.w3.org/1999/xlink" x="0px" y="0px" viewBox="0 0 1024 1024"
	 style="enable-background:new 0 0 1024 1024;" xml:space="preserve">
<style type="text/css">
	.st0{fill:#4D82B8;}
	.st1{fill:#808080;}
	.st2{fill:#76A797;}
</style>
<title>checkbox_selected icon</title>
<desc>checkbox_selected icon from the IconExperience.com O-Collection. Copyright by INCORS GmbH (www.incors.com).</desc>
<path id="curve2" class="st0" d="M448,192h512v192H448V192z"/>
<path id="curve1" class="st1" d="M128,128h133.5l-56,64h-32.2l-27.9-27.8c-17.3-17.3-42.1-22.6-64-15.9C93,135.8,109.6,128,128,128z
	 M384,230.5V384c0,35.3-28.7,64-64,64H128c-35.3,0-64-28.7-64-64v-75l64,64v11h11c30.9,29.5,79.6,29.5,110.4,0H320v-80.4L384,230.5z
	"/>
<path id="curve0" class="st2" d="M122.8,186.8L192,256L361.2,62.7c11.6-13.3,31.8-14.6,45.1-3l23.8,20.8
	c13.3,11.6,14.7,31.9,3.1,45.2L232.8,354.6c-1.4,1.9-2.9,3.7-4.6,5.4c-18.8,18.8-49.2,18.8-67.9,0L54.9,254.7
	c-12.4-12.5-12.4-32.8,0-45.3l22.6-22.6C90,174.3,110.3,174.3,122.8,186.8z"/>
<path id="curve2_1_" class="st0" d="M448,640h512v192H448V640z"/>
<path id="curve1_1_" class="st1" d="M128,576h133.5l-56,64h-32.2l-27.9-27.8c-17.3-17.3-42.1-22.6-64-15.9
	C93,583.8,109.6,576,128,576z M384,678.5V832c0,35.3-28.7,64-64,64H128c-35.3,0-64-28.7-64-64v-75l64,64v11h11
	c30.9,29.5,79.6,29.5,110.4,0H320v-80.4L384,678.5z"/>
<path id="curve0_1_" class="st2" d="M122.8,634.8L192,704l169.2-193.3c11.6-13.3,31.8-14.6,45.1-3l23.8,20.8
	c13.3,11.6,14.7,31.9,3.1,45.2L232.8,802.6c-1.4,1.9-2.9,3.7-4.6,5.4c-18.8,18.8-49.2,18.8-67.9,0L54.9,702.7
	c-12.4-12.5-12.4-32.8,0-45.3l22.6-22.6C90,622.3,110.3,622.3,122.8,634.8z"/>
</svg>
