<svg xmlns="http://www.w3.org/2000/svg" width="1024" height="1024" shape-rendering="geometricPrecision" text-rendering="geometricPrecision" image-rendering="optimizeQuality" clip-rule="evenodd" viewBox="0 0 10240 10240"><title>elements_selection icon</title><desc>elements_selection icon from the IconExperience.com O-Collection. Copyright by INCORS GmbH (www.incors.com).</desc><path fill="gray" d="M4480 2560h2880c352 0 640 288 640 640v1920c0 352-288 640-640 640h-640v-640h640V3200H4480v960h-640v-960c0-353 287-640 640-640z"/><path fill="gray" d="M2880 4480h2880c353 0 640 288 640 640v1920c0 352-288 640-640 640H2880c-352 0-640-287-640-640V5120c0-353 288-640 640-640zm0 640v1920h2880V5120H2880zM1280 1280h640v640h-640v-640zm7040 0h640v640h-640v-640zm0 7040h640v640h-640v-640zm-1920 640h1280v-640H6400v640zm-1920 0h1280v-640H4480v640zm-1920 0h1280v-640H2560v640zm-1280-640h640v640h-640v-640zm5120-6400h1280v-640H6400v640zm-1920 0h1280v-640H4480v640zm3840 2560h640v1280h-640V4480zm0-1920h640v1280h-640V2560zm0 3840h640v1280h-640V6400zM1280 4480h640v1280h-640V4480zm1280-2560h1280v-640H2560v640zm-1280 640h640v1280h-640V2560zm0 3840h640v1280h-640V6400z"/></svg>