<svg xmlns="http://www.w3.org/2000/svg" width="1024" height="1024" shape-rendering="geometricPrecision" text-rendering="geometricPrecision" image-rendering="optimizeQuality" clip-rule="evenodd" viewBox="0 0 10240 10240"><title>font icon</title><desc>font icon from the IconExperience.com O-Collection. Copyright by INCORS GmbH (www.incors.com).</desc><path fill="gray" d="M640 7040L2899 640h1363l1835 4622-901 1184-273-686H2447l-452 1280H640zm3775-2560l-803-2022-714 2022h1517z"/><path fill="#4D82B8" d="M5948 7040h1732V4767L5948 7040zm1412 1920c176 0 320-144 320-320v-960H5460l-633 831c-60 79-80 171-57 268 23 96 82 170 170 214 107 52 180 161 180 287v320H2880v-320c0-176 144-320 320-320h324c103 0 192-44 254-126l4197-5508c63-82 151-126 255-126h410c176 0 320 144 320 320v5120c0 176 144 320 320 320s320 144 320 320v320H7040v-320c0-176 144-320 320-320z"/></svg>