<?xml version="1.0" encoding="utf-8"?>
<!-- Generator: Adobe Illustrator 21.1.0, SVG Export Plug-In . SVG Version: 6.00 Build 0)  -->
<svg version="1.1"
	 id="Layer_1" shape-rendering="geometricPrecision" text-rendering="geometricPrecision" image-rendering="optimizeQuality"
	 xmlns="http://www.w3.org/2000/svg" xmlns:xlink="http://www.w3.org/1999/xlink" x="0px" y="0px" viewBox="0 0 1024 1024"
	 style="enable-background:new 0 0 1024 1024;" xml:space="preserve">
<style type="text/css">
	.st0{fill:#808080;}
	.st1{fill:#4D82B8;}
</style>
<title>formula icon</title>
<desc>formula icon from the IconExperience.com O-Collection. Copyright by INCORS GmbH (www.incors.com).</desc>
<path id="curve0" class="st0" d="M64,640V512h128c27.2,0,50.4,17,59.7,40.9L305,659.5l145.8-485.8c8.2-27.7,33.7-45.6,61.2-45.6
	l448-0.1v128H559.5L381.2,850.3l-0.1-0.1c-4.9,16.3-16.2,30.6-32.6,38.8c-31.5,15.7-69.8,3-85.5-28.5L152.7,640H64z"/>
<path class="st1" d="M576,400v384h384V400H576z M896,720H640V464h256V720z"/>
<path id="curve0_1_" class="st0" d="M672,496h96v32h-32v128h32v32h-96v-32h32V528h-32V496z"/>
</svg>
