<svg xmlns="http://www.w3.org/2000/svg" width="1024" height="1024" shape-rendering="geometricPrecision" text-rendering="geometricPrecision" image-rendering="optimizeQuality" clip-rule="evenodd" viewBox="0 0 10240 10240"><title>form icon</title><desc>form icon from the IconExperience.com O-Collection. Copyright by INCORS GmbH (www.incors.com).</desc><path fill="gray" d="M1280 640h7680v8960H1280V640zm640 640v640h6400v-640H1920zm0 6400v1280h6400V7680H1920zm3840-1600v960h2560v-960H5760zm-3840 640v320h3200v-320H1920zm0-640v320h3200v-320H1920zm0-1920v1280h6400V4160H1920zm3840-1600v960h2560v-960H5760zm-3840 640v320h3200v-320H1920zm0-640v320h3200v-320H1920z"/></svg>