<?xml version="1.0" encoding="UTF-8"?>
<!DOCTYPE svg PUBLIC "-//W3C//DTD SVG 1.1//EN" "http://www.w3.org/Graphics/SVG/1.1/DTD/svg11.dtd">
<svg xmlns="http://www.w3.org/2000/svg" xml:space="preserve" width="1024px" height="1024px" shape-rendering="geometricPrecision" text-rendering="geometricPrecision" image-rendering="optimizeQuality" fill-rule="nonzero" clip-rule="evenodd" viewBox="0 0 10240 10240" xmlns:xlink="http://www.w3.org/1999/xlink">
	<title>loudspeaker_off icon</title>
	<desc>loudspeaker_off icon from the IconExperience.com O-Collection. Copyright by INCORS GmbH (www.incors.com).</desc>
	<path id="curve2" fill="#252525" d="M960 3520l320 0 0 -320 1280 0 0 3840 -1280 0 0 -320 -320 0c-220,0 -320,-144 -320,-320l0 -2560c0,-176 100,-320 320,-320z"/>
	<path id="curve1" fill="#252525" d="M5440 640c176,0 320,144 320,320l0 8320c0,176 -144,320 -320,320 -176,0 -320,-144 -320,-320l-2240 -2240 0 -3840 2240 -2240c0,-176 144,-320 320,-320z"/>
	<path id="curve0" fill="#252525" d="M8921 7266l-921 -921 -921 921c-125,125 -328,125 -453,0l-452 -452c-125,-125 -125,-328 0,-453l921 -921 -921 -921c-125,-125 -125,-328 0,-453l452 -452c125,-125 328,-125 453,0l921 921 921 -921c125,-125 328,-125 453,0l452 452c125,125 125,328 0,453l-921 921 921 921c125,125 125,328 0,453l-452 452c-125,125 -328,125 -453,0z"/>
</svg>
