<svg xmlns="http://www.w3.org/2000/svg" width="1024" height="1024" shape-rendering="geometricPrecision" text-rendering="geometricPrecision" image-rendering="optimizeQuality" clip-rule="evenodd" viewBox="0 0 10240 10240"><title>photos icon</title><desc>photos icon from the IconExperience.com O-Collection. Copyright by INCORS GmbH (www.incors.com).</desc><path fill="gray" d="M1920 1280h7680v6400h-320V1600H1920z"/><path fill="gray" d="M1280 1920h7680v6400h-320V2240H1280z"/><path fill="#76A797" d="M4178 6576c-1075-478-1557-1055-2898 37v513l110 40c1075 394 1916 54 2788-590z"/><path fill="#76A797" d="M1280 7467c3200 1173 4480-3627 6400-1423v2276H1280v-853z"/><path fill="#4D82B8" d="M1280 3200h6400v2387c-302-272-663-462-1091-449-462 14-882 261-1246 525-300 217-583 458-873 689-149-61-298-129-450-204-360-178-731-390-1132-457-606-100-1138 167-1608 516V3200zm2560 320c-530 0-960 420-960 939 0 518 430 938 960 938s960-420 960-938c0-519-430-939-960-939z"/><path fill="gray" d="M640 2560h7680v6400H640V2560zm320 320v5760h7040V2880H960z"/></svg>