<svg id="Layer_1" data-name="Layer 1" xmlns="http://www.w3.org/2000/svg" viewBox="0 0 1024 1024"><defs><style>.cls-1{fill:#e68497;}</style></defs><title>Artboard 1</title><path class="cls-1" d="M785.46,155.11q-38.58,55.95-81.34,108.84L717,248a1828.39,1828.39,0,0,1-229.4,236.06c-22.44,19.28-45.21,38.28-69.67,55l15.42-10.45c-28.43,19.27-59.28,35.18-92.92,43l17.35-4c-18,4-36.59,5.37-54.81,2.11l17.52,3.14a87.18,87.18,0,0,1-27.89-10.32l15.91,9.69a83.78,83.78,0,0,1-18.35-15.6l13.66,15.29A149,149,0,0,1,286,545.24l10.75,20a389.88,389.88,0,0,1-28.93-69.7l7.2,23.7a392.89,392.89,0,0,1-14.23-68.76l3,26.5a370.87,370.87,0,0,1-1.72-63.33l-1.69,26.61a195.76,195.76,0,0,1,5-33.76l-6,24A127.83,127.83,0,0,1,267,408.75l-9.76,20.47a98.9,98.9,0,0,1,11.28-18.28l-12.89,15.95A91.48,91.48,0,0,1,275.17,409l-15.42,10.45c13-8.6,27.62-14.08,42.77-17.62l-17.35,4c29.75-6.66,60.74-6.17,90.67-1l-17.52-3.14c38.49,6.94,75,21.77,108.42,42L450.82,434c47,28.8,86.8,67.24,123.38,108.12l-13.66-15.29A1250.32,1250.32,0,0,1,695.91,709.41q16.68,27.43,31.9,55.7l-10.75-20q27.35,50.91,49.8,104.24A70.44,70.44,0,0,0,784.44,877a49.24,49.24,0,0,0,22.74,17.33q13.23,5.92,26.2,1.14A37.71,37.71,0,0,0,857.47,883c15.93-16,25.83-38.19,28.67-60.44,3.3-25.77,1.68-52.61-8.5-76.81a1358.65,1358.65,0,0,0-99.85-191.9A1247.22,1247.22,0,0,0,660.32,395.2c-25.32-29.08-51.15-57.93-79.73-83.89-28.18-25.59-59-47.05-92-66-28-16.05-58.3-28.26-89.86-35.09-36.86-8-74.7-12.64-112.1-5.52-19.86,3.78-40.48,8.28-58.42,18.06a185.73,185.73,0,0,0-32.21,22c-10,8.64-18.4,19.73-26.08,30.3-8.29,11.41-14,25-19.65,37.76-4.53,10.19-7,20.88-9.71,31.66s-5.42,21.52-6.79,32.64c-1.91,15.47-2.65,31.12-3.27,46.67A372.06,372.06,0,0,0,131.87,473c2.33,24.95,5.1,50,10.59,74.48A582.34,582.34,0,0,0,163.32,618a385.43,385.43,0,0,0,20.41,46.59c6.64,12.79,13.2,25.91,21.15,38,7.56,11.49,17,21.86,26.6,31.64,9.09,9.3,20.48,15.68,31.67,22.15a82.87,82.87,0,0,0,20.25,8.35c19.75,5.25,40.45,7.93,60.82,5.71a269.38,269.38,0,0,0,61-14.49c34.77-12.45,66-33.18,95.63-54.79,26.09-19,50.62-40.2,74.82-61.53A1832.1,1832.1,0,0,0,716.91,500.9a1977.34,1977.34,0,0,0,137.25-168q14-19.22,27.52-38.81a88.28,88.28,0,0,0,12.77-32.48,107.43,107.43,0,0,0,4.7-38.62,107.43,107.43,0,0,0-6.59-38.35,88.28,88.28,0,0,0-14.35-31.82c-11.06-14.37-27.15-30-47.09-28.12l-17.35,4a66.54,66.54,0,0,0-28.31,26.4Z"/></svg>