<svg xmlns="http://www.w3.org/2000/svg" width="1024" height="1024" shape-rendering="geometricPrecision" text-rendering="geometricPrecision" image-rendering="optimizeQuality" clip-rule="evenodd" viewBox="0 0 10240 10240"><title>target icon</title><desc>target icon from the IconExperience.com O-Collection. Copyright by INCORS GmbH (www.incors.com).</desc><path fill="gray" d="M5120 960c2298 0 4160 1862 4160 4160S7418 9280 5120 9280 960 7418 960 5120 2822 960 5120 960zm0 960c-1767 0-3200 1433-3200 3200s1433 3200 3200 3200 3200-1433 3200-3200-1433-3200-3200-3200z"/><path fill="gray" d="M5120 2560c1414 0 2560 1146 2560 2560S6534 7680 5120 7680 2560 6534 2560 5120s1146-2560 2560-2560zm0 960c-884 0-1600 716-1600 1600s716 1600 1600 1600 1600-716 1600-1600-716-1600-1600-1600z"/><path fill="#E68497" d="M5120 4160c530 0 960 430 960 960s-430 960-960 960-960-430-960-960 430-960 960-960z"/></svg>