<?xml version="1.0" encoding="UTF-8"?>
<!DOCTYPE svg PUBLIC "-//W3C//DTD SVG 1.1//EN" "http://www.w3.org/Graphics/SVG/1.1/DTD/svg11.dtd">
<svg xmlns="http://www.w3.org/2000/svg" xml:space="preserve" width="1024px" height="1024px" shape-rendering="geometricPrecision" text-rendering="geometricPrecision" image-rendering="optimizeQuality" fill-rule="nonzero" clip-rule="evenodd" viewBox="0 0 10240 10240" xmlns:xlink="http://www.w3.org/1999/xlink">
	<title>window_size icon</title>
	<desc>window_size icon from the IconExperience.com O-Collection. Copyright by INCORS GmbH (www.incors.com).</desc>
	<path id="curve4" fill="#252525" d="M1280 1280l7680 0c353,0 640,288 640,640l0 6720c0,176 -144,320 -320,320l-8320 0c-176,0 -320,-144 -320,-320l0 -6720c0,-353 288,-640 640,-640zm0 4107c-157,94 -320,158 -320,373 0,215 163,279 320,373l0 2187 3467 0c94,157 158,320 373,320 215,0 279,-163 373,-320l3467 0 0 -2187c157,-94 320,-158 320,-373 0,-215 -163,-279 -320,-373l0 -2187 -3467 0c-94,-157 -158,-320 -373,-320 -215,0 -279,163 -373,320l-3467 0 0 2187z"/>
	<path id="curve3" fill="#252525" d="M5120,8320 6080,6720 4160,6720z"/>
	<path id="curve2" fill="#252525" d="M8960,5760 7360,4800 7360,6720z"/>
	<path id="curve1" fill="#252525" d="M1280,5760 2880,4800 2880,6720z"/>
	<path id="curve0" fill="#252525" d="M5120,3200 6080,4800 4160,4800z"/>
</svg>
