<svg xmlns="http://www.w3.org/2000/svg" viewBox="0 0 1024 1024"><defs><style>.cls-1{fill:#f6bb18;}.cls-2{fill:#25a667;}.cls-3{fill:#fefefd;}.cls-4{fill:#fefefe;}.cls-5{fill:#57bb8a;}</style></defs><title>classroom</title><g id="background"><rect class="cls-1" width="1024" height="1024"/><rect class="cls-2" x="92" y="92" width="840" height="840"/></g><g id="details"><path class="cls-3" d="M590.89,932.22c0-14.17.22-28.35,0-42.51-.08-4.37,1.33-5.34,5.48-5.33q105.38.18,210.77,0c4.39,0,5.37,1.39,5.3,5.51-.23,14-.07,27.94-.06,41.91-25.88.1-51.77.25-77.65.29Q662.79,932.2,590.89,932.22Z"/><path class="cls-4" d="M314.92,584.38c24.49-16,51.92-24.26,80.15-30.19,55.38-11.63,111.31-13,167.5-7.9,34.8,3.18,68.94,9.55,101.72,22.11a185.87,185.87,0,0,1,31.31,15.86c1.4,1.14,2.78,2.32,4.21,3.43C711.62,596.9,718.54,608.11,718,624c-.77,22.46-.23,45-.24,67.44-1.41.07-2.83.2-4.24.2H296.91c-1.41,0-2.83-.13-4.24-.2,0-23.68.07-47.36-.09-71-.07-10.59,4-19.26,11.36-26.5C307.38,590.49,311.24,587.53,314.92,584.38Z"/><path class="cls-3" d="M419.46,396.54a95.39,95.39,0,0,1,95.43-95.42c52.16.09,95,42.95,95.29,95.26s-42.81,95.5-95.43,95.57A95.13,95.13,0,0,1,419.46,396.54Z"/><path class="cls-5" d="M369.63,454.52a70,70,0,0,1-70.32,70.24c-38.37-.13-69.64-31.77-69.58-70.39.06-39.15,31.87-69.75,72.27-69.51C338.83,385.08,369.78,417,369.63,454.52Z"/><path class="cls-5" d="M731.11,384.86c37.4,0,69.08,31.61,69,68.94,0,39.55-31.16,71-70.25,71-38.43,0-69.78-31.65-69.66-70.25C660.37,415.66,691.69,384.87,731.11,384.86Z"/><path class="cls-5" d="M717.75,691.42c0-22.48-.53-45,.24-67.44.55-15.86-6.38-27.07-18.19-36.28-1.43-1.11-2.81-2.29-4.21-3.43,4.47-2,9.2-1,13.78-1,27.56.34,54.92,2.65,81.69,9.68,16.56,4.35,32.42,10.28,46.13,20.93,9.34,7.25,14.61,16.27,14.16,28.64-.52,14.36-.26,28.76,0,43.13.07,4.52-1.5,5.94-6,5.93C802.81,691.43,760.28,691.45,717.75,691.42Z"/><path class="cls-5" d="M314.92,584.38c-3.67,3.15-7.53,6.11-11,9.5-7.37,7.24-11.43,15.91-11.36,26.5.16,23.68.08,47.36.09,71-36.68,0-73.36,0-110,.17-4.68,0-6.54-1.32-6.36-6.2.61-16.59-.86-33.22.81-49.78.89-8.8,5.73-15.32,12.41-20.79,13.49-11.05,29.44-16.89,45.88-21.51,23.9-6.72,48.43-9.2,73.16-10.06C310.69,583.17,313,582.66,314.92,584.38Z"/></g></svg>