<svg id="Layer_1" data-name="Layer 1" xmlns="http://www.w3.org/2000/svg" viewBox="0 0 1024 1024.01"><title>youtube</title><rect width="1024" height="1024.01" style="fill:#cd332d"/><path d="M440.69,100H394.06L362.59,221,329.87,100H281.31c9.71,28.53,19.86,57.24,29.57,85.81,14.78,43,24,75.33,28.19,97.45V408h46.14V283.3ZM564,333.73V253.32c0-24.52-4.21-42.44-12.93-54.07q-17.29-23.5-48.52-23.53c-20.71,0-36.94,7.86-48.43,23.53-8.86,11.62-13,29.54-13,54.07v80.41c0,24.4,4.17,42.47,13,54,11.5,15.64,27.72,23.5,48.43,23.5s37-7.86,48.52-23.5C559.77,376.21,564,358.13,564,333.73Zm-41.62,7.83c0,21.24-6.42,31.86-19.83,31.86s-19.87-10.62-19.87-31.86V245c0-21.24,6.44-31.81,19.87-31.81s19.83,10.57,19.83,31.81v96.57ZM717.79,408V178.52h-41.6V354c-9.24,13-18,19.47-26.29,19.47-5.59,0-8.84-3.29-9.74-9.75-0.52-1.35-.52-6.42-0.52-16.19v-169H598.19V360c0,16.19,1.41,27.19,3.7,34.12,4.13,11.64,13.37,17.09,26.78,17.09,15.17,0,31-9.24,47.52-28.23v25h41.6Z" transform="translate(0 0)" style="fill:#fff"/><path d="M852.52,686.63c0,53.09,0,109.43-11.94,161-8.31,36.2-37.93,62.9-73.6,66.91C682.52,924,597,924,512,924s-170.57,0-255-9.42c-35.67-4-65.29-30.71-73.6-66.91-11.86-51.56-11.86-107.9-11.86-161s0.12-109.38,12-161c8.31-36.18,37.93-62.91,73.6-66.88,84.45-9.45,169.93-9.47,255-9.45s170.57,0,255,9.45c35.68,4,65.29,30.7,73.6,66.88C852.57,577.25,852.52,633.48,852.52,686.63Z" transform="translate(0 0)" style="fill:#fff"/><path d="M365.74,572.05V529.11H222.22v42.94h48.43V834h45.77V572.05h49.33ZM448.89,834V809.2C432.55,828,417,837.1,401.87,837.1c-13.27,0-22.41-5.38-26.51-16.91-2.27-6.91-3.64-17.71-3.64-33.77V606.82h41.14V774.05c0,9.62,0,14.67.38,16,1,6.38,4.12,9.61,9.63,9.61,8.25,0,16.93-6.38,26-19.24V606.82h41.21V834H448.89Zm156.4-64.9c0,20.51-6,30.61-17.91,30.61-6.76,0-13.64-3.24-20.52-10.1V651.1c6.88-6.76,13.76-10,20.52-10,11.86,0,17.91,10.53,17.91,31v97Zm41.14-3.24V675.34c0-21.48-1.41-36.52-4.15-45.67-5.49-17-16.49-25.62-32.9-25.62-15.11,0-29.21,8.29-42.52,24.62V529.11H525.72V834h41.14V812c13.76,17,27.88,25.15,42.52,25.15,16.41,0,27.41-8.63,32.9-25.53C645,802,646.43,786.82,646.43,765.82Zm114.18-72.19H719.48v-21q0-31.5,20.65-31.53c13.59,0,20.49,10.53,20.49,31.53v21Zm41.18,67.66v-6h-42c0,16.52-.5,25.61-0.88,27.85-2.37,11-8.29,16.52-18.41,16.52-14.11,0-21-10.48-21-31.52V727.91h82.31v-47c0-24.3-4.15-42.05-12.77-53.53-11.52-15.57-27.9-23.29-48.55-23.29-21,0-37.43,7.72-49.28,23.29-8.76,11.48-12.72,29.23-12.72,53.53v79.56c0,24.09,4.48,42.05,13.22,53.38,11.88,15.53,28.26,23.29,49.83,23.29s38.36-8.15,49.77-24.63a59.14,59.14,0,0,0,9.59-24.66C801.26,783.67,801.79,774.52,801.79,761.29Z" transform="translate(0 0)" style="fill:#cd332d"/></svg>