<?xml version="1.0" encoding="UTF-8"?>
<!DOCTYPE svg PUBLIC "-//W3C//DTD SVG 1.1//EN" "http://www.w3.org/Graphics/SVG/1.1/DTD/svg11.dtd">
<svg xmlns="http://www.w3.org/2000/svg" xml:space="preserve" width="1024px" height="1024px" shape-rendering="geometricPrecision" text-rendering="geometricPrecision" image-rendering="optimizeQuality" fill-rule="evenodd" clip-rule="evenodd" viewBox="0 0 10240 10240" xmlns:xlink="http://www.w3.org/1999/xlink">
	<title>document_orientation_landscape icon</title>
	<desc>document_orientation_landscape icon from the IconExperience.com O-Collection. Copyright by INCORS GmbH (www.incors.com).</desc>
	<path id="curve2" fill="#808080" d="M1920 7040l5120 0 0 640 -5120 0 0 -640zm4480 -3840l-640 0 0 640 640 0 0 -640zm1920 1280l-2560 0 0 640 2560 0 0 -640zm-6400 1280l6400 0 0 640 -6400 0 0 -640z"/>
	<path id="curve1" fill="#4D82B8" d="M3840 2560l-640 0 -1280 2560 640 0 228 -464 1441 0 251 464 640 0 -1280 -2560zm-320 640l466 960 -954 0 489 -960z"/>
	<path id="curve0" fill="#808080" d="M9600 8960l0 -5230c0,-353 -126,-656 -375,-905l-1170 -1170c-249,-249 -553,-375 -905,-375l-6510 0 0 7680 8960 0zm-640 -640l0 -4160c0,-176 -144,-320 -320,-320l-1600 0 0 -1600c0,-176 -144,-320 -320,-320l-5440 0 0 6400 7680 0zm-320 -5120l-960 -960 0 960 960 0z"/>
</svg>